PathFileType	4	(X/Y/Z)	 2.8Hzhigh3min.trc
DataRate	CameraRate	NumFrames	NumMarkers	Units	OrigDataRate	OrigDataStartFrame	OrigNumFrames
200	200	11	35	m	200	1	1000
Frame#	Time	C7			LSH			RSH			MAN			RASI			LASI			HIPR			HIPL			RPSI			LPSI			COX			RTHI1			RTHI2			RTHI3			RTHI4			RSHA1			RSHA2			RSHA3			RSHA4			RHEEL			RMET5			RMET1			RTOE			LTHI1			LTHI2			LTHI3			LTHI4			LSHA1			LSHA2			LSHA3			LSHA4			LHEEL			LMET5			LMET1			LTOE			
		X1	Y1	Z1	X2	Y2	Z2	X3	Y3	Z3	X4	Y4	Z4	X5	Y5	Z5	X6	Y6	Z6	X7	Y7	Z7	X8	Y8	Z8	X9	Y9	Z9	X10	Y10	Z10	X11	Y11	Z11	X12	Y12	Z12	X13	Y13	Z13	X14	Y14	Z14	X15	Y15	Z15	X16	Y16	Z16	X17	Y17	Z17	X18	Y18	Z18	X19	Y19	Z19	X20	Y20	Z20	X21	Y21	Z21	X22	Y22	Z22	X23	Y23	Z23	X24	Y24	Z24	X25	Y25	Z25	X26	Y26	Z26	X27	Y27	Z27	X28	Y28	Z28	X29	Y29	Z29	X30	Y30	Z30	X31	Y31	Z31	X32	Y32	Z32	X33	Y33	Z33	X34	Y34	Z34	X35	Y35	Z35	
1	0.0050	-0.344129	1.684375	-0.516691	-0.321171	1.667408	-0.730736	-0.283729	1.670366	-0.314751	-0.193308	1.631577	-0.524783	-0.154869	1.186934	-0.397710	-0.156767	1.183677	-0.614084	-0.213302	1.242592	-0.350721	-0.224661	1.237149	-0.672180	-0.339405	1.214546	-0.444914	-0.347139	1.208948	-0.560320	-0.350299	1.220125	-0.498570	-0.260248	0.930326	-0.311732	-0.250903	0.872564	-0.299498	-0.186003	0.881156	-0.295740	-0.187703	0.940881	-0.309618	-0.357541	0.488365	-0.290394	-0.369165	0.447425	-0.296200	-0.309819	0.436570	-0.289239	-0.301886	0.475738	-0.287241	-0.436156	0.157765	-0.350856	-0.292314	0.037836	-0.299792	-0.256709	0.048922	-0.378889	-0.230682	0.041511	-0.375361	-0.252154	0.921348	-0.717692	-0.239845	0.861312	-0.725542	-0.175715	0.868905	-0.723672	-0.179226	0.928718	-0.715865	-0.339999	0.459605	-0.721519	-0.353028	0.421072	-0.719667	-0.291887	0.407178	-0.716380	-0.286606	0.451121	-0.718794	-0.443438	0.150949	-0.656380	-0.299824	0.035876	-0.723324	-0.250648	0.041349	-0.650432	-0.225282	0.033199	-0.657949	
2	0.0100	-0.344006	1.686765	-0.516768	-0.321483	1.670299	-0.730467	-0.283840	1.673585	-0.315203	-0.193252	1.634540	-0.524889	-0.154184	1.189662	-0.397827	-0.156391	1.186242	-0.613972	-0.212381	1.245779	-0.350914	-0.223972	1.240059	-0.672215	-0.338677	1.217839	-0.444889	-0.346493	1.212038	-0.560246	-0.349650	1.223524	-0.498566	-0.260008	0.933083	-0.311578	-0.250764	0.875302	-0.299307	-0.185944	0.883652	-0.295524	-0.187421	0.943474	-0.309381	-0.356926	0.490242	-0.289990	-0.368344	0.448852	-0.295789	-0.308923	0.438744	-0.288937	-0.301203	0.478053	-0.286892	-0.434352	0.159796	-0.349348	-0.290911	0.039640	-0.299568	-0.255820	0.050687	-0.378519	-0.229849	0.043443	-0.374830	-0.252207	0.923817	-0.717504	-0.239907	0.863793	-0.725457	-0.175780	0.871366	-0.723756	-0.179253	0.931163	-0.715900	-0.338837	0.461741	-0.721701	-0.351722	0.423186	-0.720009	-0.290477	0.409530	-0.716637	-0.285402	0.453463	-0.718896	-0.441727	0.152970	-0.657146	-0.298669	0.037016	-0.723053	-0.249999	0.042476	-0.650822	-0.224968	0.034211	-0.658592	
3	0.0150	-0.343826	1.688896	-0.516840	-0.321637	1.672768	-0.730260	-0.283878	1.676509	-0.315639	-0.193187	1.637214	-0.525026	-0.153583	1.192073	-0.397934	-0.156099	1.188472	-0.613854	-0.211548	1.248577	-0.351098	-0.223352	1.242509	-0.672210	-0.337999	1.220705	-0.444857	-0.345936	1.214756	-0.560171	-0.349096	1.226559	-0.498653	-0.259759	0.935414	-0.311466	-0.250607	0.877628	-0.299238	-0.185792	0.885844	-0.295380	-0.187145	0.945728	-0.309167	-0.356180	0.491848	-0.289523	-0.367423	0.450306	-0.295378	-0.307922	0.440597	-0.288651	-0.300378	0.480019	-0.286518	-0.432798	0.161516	-0.348066	-0.289246	0.041547	-0.299041	-0.254497	0.052564	-0.378012	-0.228562	0.045508	-0.374220	-0.252286	0.925876	-0.717313	-0.239943	0.865867	-0.725335	-0.175822	0.873483	-0.723783	-0.179300	0.933236	-0.715892	-0.337577	0.463502	-0.721918	-0.350365	0.424940	-0.720358	-0.289042	0.411451	-0.716795	-0.284112	0.455397	-0.718954	-0.440220	0.154716	-0.657847	-0.297438	0.038361	-0.722985	-0.249253	0.043745	-0.651157	-0.224327	0.035525	-0.658987	
4	0.0200	-0.343635	1.690953	-0.516919	-0.321707	1.675200	-0.730020	-0.283904	1.679333	-0.316073	-0.193105	1.639797	-0.525159	-0.153000	1.194393	-0.398040	-0.155826	1.190604	-0.613735	-0.210731	1.251278	-0.351276	-0.222748	1.244847	-0.672200	-0.337357	1.223494	-0.444817	-0.345407	1.217377	-0.560096	-0.348560	1.229490	-0.498716	-0.259496	0.937635	-0.311322	-0.250424	0.879861	-0.299166	-0.185625	0.887951	-0.295259	-0.186862	0.947890	-0.308973	-0.355402	0.493393	-0.289044	-0.366480	0.451709	-0.294931	-0.306885	0.442374	-0.288358	-0.299531	0.481883	-0.286215	-0.431240	0.163122	-0.346925	-0.287522	0.043473	-0.298467	-0.253064	0.054448	-0.377453	-0.227158	0.047592	-0.373564	-0.252360	0.927834	-0.717122	-0.239966	0.867837	-0.725206	-0.175853	0.875503	-0.723787	-0.179345	0.935216	-0.715871	-0.336305	0.465174	-0.722134	-0.349010	0.426612	-0.720702	-0.287618	0.413274	-0.716925	-0.282819	0.457226	-0.718996	-0.438769	0.156356	-0.658517	-0.296137	0.039768	-0.722958	-0.248397	0.045068	-0.651447	-0.223569	0.036916	-0.659352	
5	0.0250	-0.343407	1.692789	-0.517006	-0.321725	1.677328	-0.729858	-0.283874	1.681908	-0.316479	-0.192992	1.642138	-0.525301	-0.152478	1.196431	-0.398136	-0.155614	1.192430	-0.613607	-0.209972	1.253668	-0.351443	-0.222202	1.246821	-0.672170	-0.336784	1.225987	-0.444765	-0.344957	1.219698	-0.560020	-0.348092	1.232110	-0.498783	-0.259219	0.939542	-0.311200	-0.250206	0.881775	-0.299157	-0.185396	0.889810	-0.295202	-0.186571	0.949777	-0.308819	-0.354524	0.494738	-0.288517	-0.365468	0.453054	-0.294452	-0.305768	0.443905	-0.288065	-0.298598	0.483457	-0.285992	-0.429792	0.164431	-0.346072	-0.285615	0.045466	-0.297696	-0.251315	0.056385	-0.376754	-0.225410	0.049753	-0.372811	-0.252436	0.929474	-0.716936	-0.239959	0.869487	-0.725054	-0.175857	0.877236	-0.723738	-0.179393	0.936906	-0.715816	-0.334981	0.466559	-0.722361	-0.347637	0.428011	-0.721031	-0.286202	0.414770	-0.716971	-0.281486	0.458729	-0.718997	-0.437480	0.157718	-0.659102	-0.294708	0.041345	-0.723070	-0.247346	0.046530	-0.651690	-0.222502	0.038531	-0.659585	
6	0.0300	-0.343142	1.694440	-0.517100	-0.321679	1.679196	-0.729727	-0.283801	1.684230	-0.316863	-0.192819	1.644226	-0.525428	-0.152014	1.198215	-0.398222	-0.155457	1.193986	-0.613477	-0.209257	1.255778	-0.351591	-0.221710	1.248488	-0.672132	-0.336298	1.228271	-0.444681	-0.344577	1.221754	-0.559927	-0.347673	1.234424	-0.498791	-0.258916	0.941189	-0.311079	-0.249936	0.883417	-0.299165	-0.185119	0.891429	-0.295187	-0.186260	0.951424	-0.308716	-0.353575	0.495896	-0.287966	-0.364402	0.454248	-0.293882	-0.304601	0.445223	-0.287771	-0.297610	0.484766	-0.285902	-0.428430	0.165431	-0.345484	-0.283591	0.047488	-0.296790	-0.249290	0.058342	-0.375919	-0.223387	0.051919	-0.371955	-0.252493	0.930841	-0.716746	-0.239913	0.870868	-0.724883	-0.175824	0.878713	-0.723626	-0.179430	0.938352	-0.715723	-0.333636	0.467719	-0.722582	-0.346266	0.429181	-0.721303	-0.284814	0.415995	-0.716940	-0.280146	0.459951	-0.718948	-0.436326	0.158763	-0.659562	-0.293110	0.043056	-0.723274	-0.246039	0.048094	-0.651864	-0.221131	0.040328	-0.659771	
7	0.0350	-0.342855	1.695852	-0.517215	-0.321557	1.680747	-0.729634	-0.283710	1.686265	-0.317253	-0.192598	1.646047	-0.525548	-0.151611	1.199694	-0.398299	-0.155351	1.195216	-0.613344	-0.208607	1.257570	-0.351723	-0.221288	1.249810	-0.672080	-0.335899	1.230257	-0.444596	-0.344281	1.223501	-0.559840	-0.347322	1.236398	-0.498757	-0.258582	0.942534	-0.310953	-0.249609	0.884767	-0.299207	-0.184791	0.892793	-0.295250	-0.185929	0.952801	-0.308674	-0.352550	0.496873	-0.287380	-0.363283	0.455297	-0.293219	-0.303373	0.446329	-0.287488	-0.296593	0.485832	-0.285919	-0.427137	0.166108	-0.345183	-0.281463	0.049510	-0.295765	-0.247070	0.060272	-0.374919	-0.221102	0.054097	-0.370964	-0.252509	0.931904	-0.716569	-0.239816	0.871944	-0.724692	-0.175739	0.879898	-0.723465	-0.179438	0.939516	-0.715597	-0.332275	0.468622	-0.722782	-0.344912	0.430100	-0.721540	-0.283468	0.416925	-0.716832	-0.278802	0.460868	-0.718848	-0.435306	0.159473	-0.659897	-0.291326	0.044886	-0.723565	-0.244455	0.049797	-0.652060	-0.219430	0.042297	-0.659955	
8	0.0400	-0.342541	1.697032	-0.517343	-0.321352	1.682010	-0.729609	-0.283586	1.688009	-0.317632	-0.192327	1.647604	-0.525662	-0.151277	1.200904	-0.398371	-0.155293	1.196135	-0.613213	-0.208024	1.259029	-0.351820	-0.220945	1.250814	-0.672028	-0.335580	1.231944	-0.444499	-0.344060	1.224949	-0.559746	-0.347040	1.238037	-0.498689	-0.258221	0.943613	-0.310843	-0.249224	0.885853	-0.299277	-0.184410	0.893900	-0.295385	-0.185571	0.953930	-0.308698	-0.351470	0.497697	-0.286783	-0.362132	0.456180	-0.292502	-0.302149	0.447212	-0.287219	-0.295569	0.486690	-0.286013	-0.425898	0.166445	-0.345150	-0.279283	0.051490	-0.294668	-0.244701	0.062151	-0.373785	-0.218631	0.056236	-0.369838	-0.252469	0.932698	-0.716403	-0.239655	0.872742	-0.724486	-0.175593	0.880810	-0.723256	-0.179397	0.940415	-0.715440	-0.330918	0.469302	-0.722951	-0.343591	0.430796	-0.721738	-0.282176	0.417588	-0.716656	-0.277468	0.461523	-0.718693	-0.434380	0.159858	-0.660087	-0.289387	0.046784	-0.723915	-0.242580	0.051637	-0.652314	-0.217438	0.044372	-0.660198	
9	0.0450	-0.342204	1.697989	-0.517478	-0.321136	1.682944	-0.729688	-0.283438	1.689474	-0.317992	-0.192003	1.648893	-0.525767	-0.151011	1.201825	-0.398430	-0.155281	1.196759	-0.613090	-0.207515	1.260174	-0.351893	-0.220693	1.251518	-0.671977	-0.335337	1.233326	-0.444396	-0.343909	1.226100	-0.559656	-0.346826	1.239336	-0.498589	-0.257837	0.944461	-0.310774	-0.248789	0.886675	-0.299375	-0.183973	0.894773	-0.295586	-0.185184	0.954825	-0.308790	-0.350355	0.498357	-0.286181	-0.360980	0.456891	-0.291770	-0.300937	0.447915	-0.286975	-0.294515	0.487358	-0.286092	-0.424781	0.166489	-0.345246	-0.277108	0.053389	-0.293535	-0.242252	0.063960	-0.372544	-0.216046	0.058294	-0.368611	-0.252347	0.933241	-0.716253	-0.239413	0.873287	-0.724264	-0.175368	0.881467	-0.723006	-0.179282	0.941070	-0.715251	-0.329575	0.469784	-0.723083	-0.342302	0.431297	-0.721876	-0.280939	0.418018	-0.716429	-0.276157	0.461938	-0.718498	-0.433509	0.159919	-0.660114	-0.287328	0.048685	-0.724289	-0.240477	0.053537	-0.652666	-0.215206	0.046500	-0.660540	
10	0.0500	-0.341844	1.698719	-0.517618	-0.320820	1.683595	-0.729792	-0.283273	1.690629	-0.318357	-0.191642	1.649897	-0.525872	-0.150818	1.202498	-0.398479	-0.155308	1.197141	-0.612992	-0.207098	1.261008	-0.351936	-0.220538	1.251953	-0.671925	-0.335161	1.234365	-0.444296	-0.343824	1.226957	-0.559572	-0.346682	1.240302	-0.498488	-0.257416	0.945053	-0.310676	-0.248298	0.887270	-0.299484	-0.183476	0.895410	-0.295860	-0.184769	0.955493	-0.308945	-0.349224	0.498867	-0.285602	-0.359830	0.457441	-0.291029	-0.299757	0.448438	-0.286760	-0.293440	0.487875	-0.286094	-0.423806	0.166267	-0.345398	-0.274974	0.055165	-0.292407	-0.239778	0.065673	-0.371251	-0.213409	0.060248	-0.367319	-0.252123	0.933550	-0.716102	-0.239078	0.873601	-0.724024	-0.175049	0.881888	-0.722720	-0.179077	0.941493	-0.715027	-0.328248	0.470094	-0.723172	-0.341049	0.431620	-0.721974	-0.279746	0.418240	-0.716165	-0.274869	0.462153	-0.718257	-0.432659	0.159698	-0.659999	-0.285195	0.050524	-0.724663	-0.238198	0.055460	-0.653127	-0.212803	0.048628	-0.660999	
11	0.0550	-0.341457	1.699223	-0.517760	-0.320432	1.683950	-0.729956	-0.283079	1.691481	-0.318709	-0.191256	1.650620	-0.525976	-0.150696	1.202926	-0.398509	-0.155369	1.197295	-0.612917	-0.206772	1.261548	-0.351956	-0.220487	1.252133	-0.671874	-0.335056	1.235071	-0.444201	-0.343800	1.227522	-0.559500	-0.346607	1.240950	-0.498393	-0.256978	0.945416	-0.310544	-0.247755	0.887633	-0.299600	-0.182914	0.895840	-0.296204	-0.184321	0.955937	-0.309166	-0.348085	0.499241	-0.285058	-0.358699	0.457858	-0.290332	-0.298610	0.448792	-0.286568	-0.292329	0.488236	-0.286003	-0.422892	0.165804	-0.345667	-0.272894	0.056795	-0.291326	-0.237313	0.067278	-0.369956	-0.210768	0.062077	-0.366018	-0.251787	0.933654	-0.715959	-0.238632	0.873695	-0.723767	-0.174624	0.882093	-0.722397	-0.178765	0.941704	-0.714771	-0.326937	0.470244	-0.723224	-0.339833	0.431796	-0.722067	-0.278596	0.418292	-0.715879	-0.273611	0.462196	-0.718000	-0.431807	0.159221	-0.659746	-0.283039	0.052259	-0.725022	-0.235792	0.057359	-0.653675	-0.210290	0.050705	-0.661555	
